<svg xmlns="http://www.w3.org/2000/svg" width="190" height="50" viewBox="0 0 190 50">
    <g data-name="그룹 17">
        <g data-name="사각형 59" style="fill:#fff;stroke:#d2d2d2">
            <path style="stroke:none" d="M0 0h190v50H0z"/>
            <path style="fill:none" d="M.5.5h189v49H.5z"/>
        </g>
        <text data-name="Text State" transform="translate(73.847 33)" style="fill:#868e96;font-size:18px;font-family:MalgunGothic,Malgun Gothic"><tspan x="0" y="0">카카오톡</tspan></text>
    </g>
    <g data-name="그룹 337">
        <path data-name="사각형 291" transform="translate(52.4 18.394)" style="fill:#3e2723" d="M0 0h13.997v13.997H0z"/>
        <g data-name="그룹 337">
            <path data-name="패스 639" d="M15.35 0H1.3A1.3 1.3 0 0 0 0 1.3v14.05a1.3 1.3 0 0 0 1.3 1.3h14.05a1.3 1.3 0 0 0 1.3-1.3V1.3a1.3 1.3 0 0 0-1.3-1.3zM8.325 13.008a8.635 8.635 0 0 1-1.2-.083c-.39.275-2.645 1.859-2.858 1.888A.2.2 0 0 1 4.1 14.8c-.074-.044-.061-.159-.061-.159.022-.153.585-2.094.688-2.451a5.2 5.2 0 0 1-3.166-4.515c0-2.946 3.028-5.334 6.764-5.334s6.764 2.388 6.764 5.334-3.028 5.333-6.764 5.333zm-2.74-6.163h-.609v2.319a.391.391 0 0 1-.78 0V6.845h-.61a.383.383 0 0 1 0-.764h2a.383.383 0 0 1 0 .764zM13.207 8.9a.39.39 0 1 1-.623.47l-.915-1.212-.135.135v.851a.39.39 0 1 1-.78 0V6.471a.391.391 0 0 1 .78 0v.839l1.089-1.089a.3.3 0 0 1 .216-.087.4.4 0 0 1 .384.363.3.3 0 0 1-.086.238l-.889.889.96 1.276zM7.414 6.467a.543.543 0 0 0-1.04 0l-.933 2.456c-.119.368-.015.505.092.555a.6.6 0 0 0 .248.053.32.32 0 0 0 .325-.172l.194-.506h1.19l.194.506a.32.32 0 0 0 .325.172.6.6 0 0 0 .248-.054c.108-.049.211-.186.092-.555l-.935-2.455zM6.5 8.162l.39-1.107.389 1.107zm4.1.959a.366.366 0 0 1-.374.358h-1.25a.366.366 0 0 1-.376-.357V6.471a.4.4 0 0 1 .8 0v2.293h.829a.367.367 0 0 1 .375.357z" style="fill:#ffeb3b" transform="translate(51 16.994)"/>
        </g>
    </g>
</svg>
